<mxfile host="app.diagrams.net" modified="2023-10-21T15:49:21.197Z" agent="Mozilla/5.0 (Windows NT 10.0; Win64; x64) AppleWebKit/537.36 (KHTML, like Gecko) Chrome/118.0.0.0 Safari/537.36" etag="Cj61i8M_IVPY2kIG6kbz" version="22.0.6" type="github" pages="5">
  <diagram name="Page-1" id="1B3bax6qiByS2Koys289">
    <mxGraphModel dx="2231" dy="1184" grid="1" gridSize="10" guides="1" tooltips="1" connect="1" arrows="1" fold="1" page="1" pageScale="1" pageWidth="827" pageHeight="1169" math="0" shadow="0">
      <root>
        <mxCell id="0" />
        <mxCell id="1" parent="0" />
        <mxCell id="YCXgulC_s61Ko-qiLUp3-5" style="edgeStyle=elbowEdgeStyle;rounded=0;orthogonalLoop=1;jettySize=auto;html=1;exitX=1;exitY=0.5;exitDx=0;exitDy=0;exitPerimeter=0;entryX=0;entryY=0.5;entryDx=0;entryDy=0;elbow=vertical;" edge="1" parent="1" source="YCXgulC_s61Ko-qiLUp3-1" target="YCXgulC_s61Ko-qiLUp3-4">
          <mxGeometry relative="1" as="geometry" />
        </mxCell>
        <mxCell id="YCXgulC_s61Ko-qiLUp3-1" value="Start" style="strokeWidth=2;html=1;shape=mxgraph.flowchart.terminator;whiteSpace=wrap;" vertex="1" parent="1">
          <mxGeometry x="20" y="30" width="100" height="60" as="geometry" />
        </mxCell>
        <mxCell id="YCXgulC_s61Ko-qiLUp3-4" value="Customer" style="rounded=1;whiteSpace=wrap;html=1;absoluteArcSize=1;arcSize=14;strokeWidth=2;" vertex="1" parent="1">
          <mxGeometry x="150" y="30" width="100" height="60" as="geometry" />
        </mxCell>
        <mxCell id="YCXgulC_s61Ko-qiLUp3-6" style="edgeStyle=elbowEdgeStyle;rounded=0;orthogonalLoop=1;jettySize=auto;html=1;exitX=1;exitY=0.5;exitDx=0;exitDy=0;exitPerimeter=0;entryX=0;entryY=0.5;entryDx=0;entryDy=0;elbow=vertical;" edge="1" parent="1">
          <mxGeometry relative="1" as="geometry">
            <mxPoint x="250" y="60" as="sourcePoint" />
            <mxPoint x="280" y="60" as="targetPoint" />
          </mxGeometry>
        </mxCell>
        <mxCell id="YCXgulC_s61Ko-qiLUp3-14" value="" style="edgeStyle=orthogonalEdgeStyle;rounded=0;orthogonalLoop=1;jettySize=auto;html=1;" edge="1" parent="1" source="YCXgulC_s61Ko-qiLUp3-47" target="YCXgulC_s61Ko-qiLUp3-13">
          <mxGeometry relative="1" as="geometry" />
        </mxCell>
        <mxCell id="YCXgulC_s61Ko-qiLUp3-9" value="Request for Order List" style="strokeWidth=2;html=1;shape=mxgraph.flowchart.start_2;whiteSpace=wrap;" vertex="1" parent="1">
          <mxGeometry x="410" y="20" width="80" height="80" as="geometry" />
        </mxCell>
        <mxCell id="YCXgulC_s61Ko-qiLUp3-12" value="" style="edgeStyle=orthogonalEdgeStyle;rounded=0;orthogonalLoop=1;jettySize=auto;html=1;" edge="1" parent="1" source="YCXgulC_s61Ko-qiLUp3-10">
          <mxGeometry relative="1" as="geometry">
            <mxPoint x="555" y="100" as="targetPoint" />
          </mxGeometry>
        </mxCell>
        <mxCell id="YCXgulC_s61Ko-qiLUp3-10" value="Order Abstract" style="strokeWidth=2;html=1;shape=mxgraph.flowchart.database;whiteSpace=wrap;" vertex="1" parent="1">
          <mxGeometry x="525" y="140" width="60" height="60" as="geometry" />
        </mxCell>
        <mxCell id="YCXgulC_s61Ko-qiLUp3-13" value="End" style="strokeWidth=2;html=1;shape=mxgraph.flowchart.terminator;whiteSpace=wrap;" vertex="1" parent="1">
          <mxGeometry x="640" y="30" width="100" height="60" as="geometry" />
        </mxCell>
        <mxCell id="YCXgulC_s61Ko-qiLUp3-15" style="edgeStyle=elbowEdgeStyle;rounded=0;orthogonalLoop=1;jettySize=auto;html=1;exitX=1;exitY=0.5;exitDx=0;exitDy=0;exitPerimeter=0;entryX=0;entryY=0.5;entryDx=0;entryDy=0;elbow=vertical;" edge="1" parent="1" source="YCXgulC_s61Ko-qiLUp3-16" target="YCXgulC_s61Ko-qiLUp3-17">
          <mxGeometry relative="1" as="geometry" />
        </mxCell>
        <mxCell id="YCXgulC_s61Ko-qiLUp3-16" value="Start" style="strokeWidth=2;html=1;shape=mxgraph.flowchart.terminator;whiteSpace=wrap;" vertex="1" parent="1">
          <mxGeometry x="20" y="240" width="100" height="60" as="geometry" />
        </mxCell>
        <mxCell id="YCXgulC_s61Ko-qiLUp3-17" value="Customer" style="rounded=1;whiteSpace=wrap;html=1;absoluteArcSize=1;arcSize=14;strokeWidth=2;" vertex="1" parent="1">
          <mxGeometry x="150" y="240" width="100" height="60" as="geometry" />
        </mxCell>
        <mxCell id="YCXgulC_s61Ko-qiLUp3-18" style="edgeStyle=elbowEdgeStyle;rounded=0;orthogonalLoop=1;jettySize=auto;html=1;exitX=1;exitY=0.5;exitDx=0;exitDy=0;exitPerimeter=0;entryX=0;entryY=0.5;entryDx=0;entryDy=0;elbow=vertical;" edge="1" parent="1">
          <mxGeometry relative="1" as="geometry">
            <mxPoint x="250" y="270" as="sourcePoint" />
            <mxPoint x="280" y="270" as="targetPoint" />
          </mxGeometry>
        </mxCell>
        <mxCell id="YCXgulC_s61Ko-qiLUp3-19" value="" style="edgeStyle=orthogonalEdgeStyle;rounded=0;orthogonalLoop=1;jettySize=auto;html=1;" edge="1" parent="1" source="YCXgulC_s61Ko-qiLUp3-20" target="YCXgulC_s61Ko-qiLUp3-23">
          <mxGeometry relative="1" as="geometry" />
        </mxCell>
        <mxCell id="YCXgulC_s61Ko-qiLUp3-20" value="Store Feedback into System" style="strokeWidth=2;html=1;shape=mxgraph.flowchart.start_2;whiteSpace=wrap;" vertex="1" parent="1">
          <mxGeometry x="390" y="230" width="80" height="80" as="geometry" />
        </mxCell>
        <mxCell id="YCXgulC_s61Ko-qiLUp3-21" value="" style="edgeStyle=orthogonalEdgeStyle;rounded=0;orthogonalLoop=1;jettySize=auto;html=1;" edge="1" parent="1" source="YCXgulC_s61Ko-qiLUp3-22" target="YCXgulC_s61Ko-qiLUp3-20">
          <mxGeometry relative="1" as="geometry" />
        </mxCell>
        <mxCell id="YCXgulC_s61Ko-qiLUp3-22" value="Customer Feedback" style="strokeWidth=2;html=1;shape=mxgraph.flowchart.database;whiteSpace=wrap;" vertex="1" parent="1">
          <mxGeometry x="395" y="360" width="70" height="70" as="geometry" />
        </mxCell>
        <mxCell id="YCXgulC_s61Ko-qiLUp3-23" value="End" style="strokeWidth=2;html=1;shape=mxgraph.flowchart.terminator;whiteSpace=wrap;" vertex="1" parent="1">
          <mxGeometry x="510" y="240" width="100" height="60" as="geometry" />
        </mxCell>
        <mxCell id="YCXgulC_s61Ko-qiLUp3-25" value="" style="edgeStyle=orthogonalEdgeStyle;rounded=0;orthogonalLoop=1;jettySize=auto;html=1;" edge="1" parent="1" source="YCXgulC_s61Ko-qiLUp3-24" target="YCXgulC_s61Ko-qiLUp3-20">
          <mxGeometry relative="1" as="geometry" />
        </mxCell>
        <mxCell id="YCXgulC_s61Ko-qiLUp3-24" value="Write Feedback" style="strokeWidth=2;html=1;shape=mxgraph.flowchart.start_2;whiteSpace=wrap;" vertex="1" parent="1">
          <mxGeometry x="280" y="230" width="80" height="80" as="geometry" />
        </mxCell>
        <mxCell id="YCXgulC_s61Ko-qiLUp3-34" style="edgeStyle=elbowEdgeStyle;rounded=0;orthogonalLoop=1;jettySize=auto;html=1;exitX=1;exitY=0.5;exitDx=0;exitDy=0;exitPerimeter=0;entryX=0;entryY=0.5;entryDx=0;entryDy=0;elbow=vertical;" edge="1" parent="1" source="YCXgulC_s61Ko-qiLUp3-35" target="YCXgulC_s61Ko-qiLUp3-36">
          <mxGeometry relative="1" as="geometry" />
        </mxCell>
        <mxCell id="YCXgulC_s61Ko-qiLUp3-35" value="Start" style="strokeWidth=2;html=1;shape=mxgraph.flowchart.terminator;whiteSpace=wrap;" vertex="1" parent="1">
          <mxGeometry x="20" y="470" width="100" height="60" as="geometry" />
        </mxCell>
        <mxCell id="YCXgulC_s61Ko-qiLUp3-36" value="Owner" style="rounded=1;whiteSpace=wrap;html=1;absoluteArcSize=1;arcSize=14;strokeWidth=2;" vertex="1" parent="1">
          <mxGeometry x="150" y="470" width="100" height="60" as="geometry" />
        </mxCell>
        <mxCell id="YCXgulC_s61Ko-qiLUp3-37" style="edgeStyle=elbowEdgeStyle;rounded=0;orthogonalLoop=1;jettySize=auto;html=1;exitX=1;exitY=0.5;exitDx=0;exitDy=0;exitPerimeter=0;entryX=0;entryY=0.5;entryDx=0;entryDy=0;elbow=vertical;" edge="1" parent="1">
          <mxGeometry relative="1" as="geometry">
            <mxPoint x="250" y="500" as="sourcePoint" />
            <mxPoint x="280" y="500" as="targetPoint" />
          </mxGeometry>
        </mxCell>
        <mxCell id="YCXgulC_s61Ko-qiLUp3-38" value="" style="edgeStyle=orthogonalEdgeStyle;rounded=0;orthogonalLoop=1;jettySize=auto;html=1;" edge="1" parent="1" source="YCXgulC_s61Ko-qiLUp3-52" target="YCXgulC_s61Ko-qiLUp3-42">
          <mxGeometry relative="1" as="geometry" />
        </mxCell>
        <mxCell id="YCXgulC_s61Ko-qiLUp3-39" value="Show Employee List" style="strokeWidth=2;html=1;shape=mxgraph.flowchart.start_2;whiteSpace=wrap;" vertex="1" parent="1">
          <mxGeometry x="390" y="460" width="80" height="80" as="geometry" />
        </mxCell>
        <mxCell id="YCXgulC_s61Ko-qiLUp3-40" value="" style="edgeStyle=orthogonalEdgeStyle;rounded=0;orthogonalLoop=1;jettySize=auto;html=1;" edge="1" parent="1" source="YCXgulC_s61Ko-qiLUp3-41" target="YCXgulC_s61Ko-qiLUp3-39">
          <mxGeometry relative="1" as="geometry" />
        </mxCell>
        <mxCell id="YCXgulC_s61Ko-qiLUp3-54" value="" style="edgeStyle=orthogonalEdgeStyle;rounded=0;orthogonalLoop=1;jettySize=auto;html=1;" edge="1" parent="1" source="YCXgulC_s61Ko-qiLUp3-41" target="YCXgulC_s61Ko-qiLUp3-52">
          <mxGeometry relative="1" as="geometry" />
        </mxCell>
        <mxCell id="YCXgulC_s61Ko-qiLUp3-41" value="Employee" style="strokeWidth=2;html=1;shape=mxgraph.flowchart.database;whiteSpace=wrap;" vertex="1" parent="1">
          <mxGeometry x="395" y="605" width="70" height="70" as="geometry" />
        </mxCell>
        <mxCell id="YCXgulC_s61Ko-qiLUp3-42" value="End" style="strokeWidth=2;html=1;shape=mxgraph.flowchart.terminator;whiteSpace=wrap;" vertex="1" parent="1">
          <mxGeometry x="680" y="610" width="100" height="60" as="geometry" />
        </mxCell>
        <mxCell id="YCXgulC_s61Ko-qiLUp3-43" value="" style="edgeStyle=orthogonalEdgeStyle;rounded=0;orthogonalLoop=1;jettySize=auto;html=1;" edge="1" parent="1" source="YCXgulC_s61Ko-qiLUp3-44" target="YCXgulC_s61Ko-qiLUp3-39">
          <mxGeometry relative="1" as="geometry" />
        </mxCell>
        <mxCell id="YCXgulC_s61Ko-qiLUp3-44" value="Request to Show Employee" style="strokeWidth=2;html=1;shape=mxgraph.flowchart.start_2;whiteSpace=wrap;" vertex="1" parent="1">
          <mxGeometry x="280" y="460" width="80" height="80" as="geometry" />
        </mxCell>
        <mxCell id="YCXgulC_s61Ko-qiLUp3-48" value="" style="edgeStyle=orthogonalEdgeStyle;rounded=0;orthogonalLoop=1;jettySize=auto;html=1;" edge="1" parent="1" source="YCXgulC_s61Ko-qiLUp3-9" target="YCXgulC_s61Ko-qiLUp3-47">
          <mxGeometry relative="1" as="geometry">
            <mxPoint x="490" y="60" as="sourcePoint" />
            <mxPoint x="640" y="60" as="targetPoint" />
          </mxGeometry>
        </mxCell>
        <mxCell id="YCXgulC_s61Ko-qiLUp3-47" value="Show Order List" style="strokeWidth=2;html=1;shape=mxgraph.flowchart.start_2;whiteSpace=wrap;" vertex="1" parent="1">
          <mxGeometry x="515" y="20" width="80" height="80" as="geometry" />
        </mxCell>
        <mxCell id="YCXgulC_s61Ko-qiLUp3-50" value="" style="edgeStyle=orthogonalEdgeStyle;rounded=0;orthogonalLoop=1;jettySize=auto;html=1;" edge="1" parent="1" source="YCXgulC_s61Ko-qiLUp3-39" target="YCXgulC_s61Ko-qiLUp3-49">
          <mxGeometry relative="1" as="geometry">
            <mxPoint x="470" y="500" as="sourcePoint" />
            <mxPoint x="650" y="500" as="targetPoint" />
          </mxGeometry>
        </mxCell>
        <mxCell id="YCXgulC_s61Ko-qiLUp3-71" value="" style="edgeStyle=orthogonalEdgeStyle;rounded=0;orthogonalLoop=1;jettySize=auto;html=1;" edge="1" parent="1" source="YCXgulC_s61Ko-qiLUp3-49" target="YCXgulC_s61Ko-qiLUp3-52">
          <mxGeometry relative="1" as="geometry" />
        </mxCell>
        <mxCell id="YCXgulC_s61Ko-qiLUp3-49" value="Edit Employee List" style="strokeWidth=2;html=1;shape=mxgraph.flowchart.start_2;whiteSpace=wrap;" vertex="1" parent="1">
          <mxGeometry x="520" y="460" width="80" height="80" as="geometry" />
        </mxCell>
        <mxCell id="YCXgulC_s61Ko-qiLUp3-52" value="Store Employee List to database" style="strokeWidth=2;html=1;shape=mxgraph.flowchart.start_2;whiteSpace=wrap;" vertex="1" parent="1">
          <mxGeometry x="520" y="600" width="80" height="80" as="geometry" />
        </mxCell>
        <mxCell id="YCXgulC_s61Ko-qiLUp3-55" style="edgeStyle=elbowEdgeStyle;rounded=0;orthogonalLoop=1;jettySize=auto;html=1;exitX=1;exitY=0.5;exitDx=0;exitDy=0;exitPerimeter=0;entryX=0;entryY=0.5;entryDx=0;entryDy=0;elbow=vertical;" edge="1" parent="1" source="YCXgulC_s61Ko-qiLUp3-56" target="YCXgulC_s61Ko-qiLUp3-57">
          <mxGeometry relative="1" as="geometry" />
        </mxCell>
        <mxCell id="YCXgulC_s61Ko-qiLUp3-56" value="Start" style="strokeWidth=2;html=1;shape=mxgraph.flowchart.terminator;whiteSpace=wrap;" vertex="1" parent="1">
          <mxGeometry x="20" y="720" width="100" height="60" as="geometry" />
        </mxCell>
        <mxCell id="YCXgulC_s61Ko-qiLUp3-57" value="database" style="rounded=1;whiteSpace=wrap;html=1;absoluteArcSize=1;arcSize=14;strokeWidth=2;" vertex="1" parent="1">
          <mxGeometry x="150" y="720" width="100" height="60" as="geometry" />
        </mxCell>
        <mxCell id="YCXgulC_s61Ko-qiLUp3-58" style="edgeStyle=elbowEdgeStyle;rounded=0;orthogonalLoop=1;jettySize=auto;html=1;exitX=1;exitY=0.5;exitDx=0;exitDy=0;exitPerimeter=0;entryX=0;entryY=0.5;entryDx=0;entryDy=0;elbow=vertical;" edge="1" parent="1">
          <mxGeometry relative="1" as="geometry">
            <mxPoint x="250" y="750" as="sourcePoint" />
            <mxPoint x="280" y="750" as="targetPoint" />
          </mxGeometry>
        </mxCell>
        <mxCell id="YCXgulC_s61Ko-qiLUp3-64" value="End" style="strokeWidth=2;html=1;shape=mxgraph.flowchart.terminator;whiteSpace=wrap;" vertex="1" parent="1">
          <mxGeometry x="680" y="720" width="100" height="60" as="geometry" />
        </mxCell>
        <mxCell id="YCXgulC_s61Ko-qiLUp3-65" value="" style="edgeStyle=orthogonalEdgeStyle;rounded=0;orthogonalLoop=1;jettySize=auto;html=1;" edge="1" parent="1" source="YCXgulC_s61Ko-qiLUp3-66">
          <mxGeometry relative="1" as="geometry">
            <mxPoint x="390" y="750.0588235294117" as="targetPoint" />
          </mxGeometry>
        </mxCell>
        <mxCell id="YCXgulC_s61Ko-qiLUp3-66" value="Get Order Info&amp;nbsp;" style="strokeWidth=2;html=1;shape=mxgraph.flowchart.start_2;whiteSpace=wrap;" vertex="1" parent="1">
          <mxGeometry x="280" y="710" width="80" height="80" as="geometry" />
        </mxCell>
        <mxCell id="O21jiFsLCvKLlF9JKllv-3" style="edgeStyle=orthogonalEdgeStyle;rounded=0;orthogonalLoop=1;jettySize=auto;html=1;exitX=0.5;exitY=0;exitDx=0;exitDy=0;exitPerimeter=0;" edge="1" parent="1" source="O21jiFsLCvKLlF9JKllv-1" target="YCXgulC_s61Ko-qiLUp3-47">
          <mxGeometry relative="1" as="geometry" />
        </mxCell>
        <mxCell id="O21jiFsLCvKLlF9JKllv-1" value="Order Detail" style="strokeWidth=2;html=1;shape=mxgraph.flowchart.database;whiteSpace=wrap;" vertex="1" parent="1">
          <mxGeometry x="600" y="140" width="55" height="60" as="geometry" />
        </mxCell>
        <mxCell id="O21jiFsLCvKLlF9JKllv-5" value="" style="edgeStyle=orthogonalEdgeStyle;rounded=0;orthogonalLoop=1;jettySize=auto;html=1;" edge="1" parent="1" source="O21jiFsLCvKLlF9JKllv-4" target="YCXgulC_s61Ko-qiLUp3-9">
          <mxGeometry relative="1" as="geometry" />
        </mxCell>
        <mxCell id="O21jiFsLCvKLlF9JKllv-4" value="Log in" style="ellipse;whiteSpace=wrap;html=1;aspect=fixed;" vertex="1" parent="1">
          <mxGeometry x="280" y="20" width="80" height="80" as="geometry" />
        </mxCell>
        <mxCell id="O21jiFsLCvKLlF9JKllv-8" value="" style="edgeStyle=orthogonalEdgeStyle;rounded=0;orthogonalLoop=1;jettySize=auto;html=1;" edge="1" parent="1" source="O21jiFsLCvKLlF9JKllv-7" target="O21jiFsLCvKLlF9JKllv-4">
          <mxGeometry relative="1" as="geometry" />
        </mxCell>
        <mxCell id="O21jiFsLCvKLlF9JKllv-7" value="Customer" style="strokeWidth=2;html=1;shape=mxgraph.flowchart.database;whiteSpace=wrap;" vertex="1" parent="1">
          <mxGeometry x="290" y="140" width="60" height="60" as="geometry" />
        </mxCell>
        <mxCell id="9yQIJPL460uI-8BXVGXm-1" value="Order Abstract" style="strokeWidth=2;html=1;shape=mxgraph.flowchart.database;whiteSpace=wrap;" vertex="1" parent="1">
          <mxGeometry x="160" y="860" width="130" height="90" as="geometry" />
        </mxCell>
        <mxCell id="9yQIJPL460uI-8BXVGXm-4" style="edgeStyle=orthogonalEdgeStyle;rounded=0;orthogonalLoop=1;jettySize=auto;html=1;exitX=0.5;exitY=0;exitDx=0;exitDy=0;exitPerimeter=0;" edge="1" parent="1" source="9yQIJPL460uI-8BXVGXm-2">
          <mxGeometry relative="1" as="geometry">
            <mxPoint x="320" y="790" as="targetPoint" />
          </mxGeometry>
        </mxCell>
        <mxCell id="9yQIJPL460uI-8BXVGXm-2" value="Order Detail" style="strokeWidth=2;html=1;shape=mxgraph.flowchart.database;whiteSpace=wrap;" vertex="1" parent="1">
          <mxGeometry x="320" y="860" width="130" height="90" as="geometry" />
        </mxCell>
        <mxCell id="9yQIJPL460uI-8BXVGXm-3" style="edgeStyle=orthogonalEdgeStyle;rounded=0;orthogonalLoop=1;jettySize=auto;html=1;exitX=0.5;exitY=0;exitDx=0;exitDy=0;exitPerimeter=0;entryX=0.5;entryY=1;entryDx=0;entryDy=0;entryPerimeter=0;" edge="1" parent="1" source="9yQIJPL460uI-8BXVGXm-1" target="YCXgulC_s61Ko-qiLUp3-66">
          <mxGeometry relative="1" as="geometry" />
        </mxCell>
        <mxCell id="9yQIJPL460uI-8BXVGXm-6" value="" style="edgeStyle=orthogonalEdgeStyle;rounded=0;orthogonalLoop=1;jettySize=auto;html=1;" edge="1" parent="1" source="9yQIJPL460uI-8BXVGXm-5" target="YCXgulC_s61Ko-qiLUp3-64">
          <mxGeometry relative="1" as="geometry" />
        </mxCell>
        <mxCell id="9yQIJPL460uI-8BXVGXm-7" value="&lt;font style=&quot;font-size: 30px;&quot;&gt;NO&lt;/font&gt;" style="edgeLabel;html=1;align=center;verticalAlign=middle;resizable=0;points=[];" vertex="1" connectable="0" parent="9yQIJPL460uI-8BXVGXm-6">
          <mxGeometry x="0.138" y="6" relative="1" as="geometry">
            <mxPoint x="-13" y="6" as="offset" />
          </mxGeometry>
        </mxCell>
        <mxCell id="9yQIJPL460uI-8BXVGXm-5" value="Order Status Change" style="strokeWidth=2;html=1;shape=mxgraph.flowchart.decision;whiteSpace=wrap;" vertex="1" parent="1">
          <mxGeometry x="390" y="700" width="180" height="100" as="geometry" />
        </mxCell>
        <mxCell id="9yQIJPL460uI-8BXVGXm-13" value="" style="edgeStyle=orthogonalEdgeStyle;rounded=0;orthogonalLoop=1;jettySize=auto;html=1;" edge="1" parent="1" source="9yQIJPL460uI-8BXVGXm-9" target="9yQIJPL460uI-8BXVGXm-12">
          <mxGeometry relative="1" as="geometry" />
        </mxCell>
        <mxCell id="9yQIJPL460uI-8BXVGXm-14" value="&lt;font style=&quot;font-size: 20px;&quot;&gt;Store to Finance System&lt;/font&gt;" style="edgeLabel;html=1;align=center;verticalAlign=middle;resizable=0;points=[];" vertex="1" connectable="0" parent="9yQIJPL460uI-8BXVGXm-13">
          <mxGeometry x="-0.0476" y="2" relative="1" as="geometry">
            <mxPoint as="offset" />
          </mxGeometry>
        </mxCell>
        <mxCell id="9yQIJPL460uI-8BXVGXm-15" style="edgeStyle=orthogonalEdgeStyle;rounded=0;orthogonalLoop=1;jettySize=auto;html=1;exitX=1;exitY=0.5;exitDx=0;exitDy=0;exitPerimeter=0;" edge="1" parent="1" source="9yQIJPL460uI-8BXVGXm-9" target="YCXgulC_s61Ko-qiLUp3-64">
          <mxGeometry relative="1" as="geometry" />
        </mxCell>
        <mxCell id="9yQIJPL460uI-8BXVGXm-9" value="Finance" style="strokeWidth=2;html=1;shape=mxgraph.flowchart.database;whiteSpace=wrap;" vertex="1" parent="1">
          <mxGeometry x="525" y="860" width="140" height="110" as="geometry" />
        </mxCell>
        <mxCell id="9yQIJPL460uI-8BXVGXm-10" style="edgeStyle=orthogonalEdgeStyle;rounded=0;orthogonalLoop=1;jettySize=auto;html=1;exitX=0.5;exitY=1;exitDx=0;exitDy=0;exitPerimeter=0;entryX=0.5;entryY=0;entryDx=0;entryDy=0;entryPerimeter=0;" edge="1" parent="1" source="9yQIJPL460uI-8BXVGXm-5" target="9yQIJPL460uI-8BXVGXm-9">
          <mxGeometry relative="1" as="geometry" />
        </mxCell>
        <mxCell id="9yQIJPL460uI-8BXVGXm-11" value="&lt;font style=&quot;font-size: 30px;&quot;&gt;YES&lt;/font&gt;" style="edgeLabel;html=1;align=center;verticalAlign=middle;resizable=0;points=[];" vertex="1" connectable="0" parent="9yQIJPL460uI-8BXVGXm-10">
          <mxGeometry x="-0.0841" y="-5" relative="1" as="geometry">
            <mxPoint as="offset" />
          </mxGeometry>
        </mxCell>
        <mxCell id="9yQIJPL460uI-8BXVGXm-12" value="Finance System" style="whiteSpace=wrap;html=1;strokeWidth=2;" vertex="1" parent="1">
          <mxGeometry x="535" y="1075" width="120" height="60" as="geometry" />
        </mxCell>
      </root>
    </mxGraphModel>
  </diagram>
  <diagram id="RDfNkw6PsQ106rFuRHVT" name="Page-2">
    <mxGraphModel dx="1562" dy="829" grid="0" gridSize="10" guides="1" tooltips="1" connect="1" arrows="1" fold="1" page="1" pageScale="1" pageWidth="827" pageHeight="1169" math="0" shadow="0">
      <root>
        <mxCell id="0" />
        <mxCell id="1" parent="0" />
        <mxCell id="_JtfFcIbpI1z_g6PQEzy-11" style="edgeStyle=orthogonalEdgeStyle;rounded=0;orthogonalLoop=1;jettySize=auto;html=1;exitX=0.5;exitY=1;exitDx=0;exitDy=0;entryX=0.5;entryY=0;entryDx=0;entryDy=0;" edge="1" parent="1" source="_JtfFcIbpI1z_g6PQEzy-1" target="_JtfFcIbpI1z_g6PQEzy-2">
          <mxGeometry relative="1" as="geometry" />
        </mxCell>
        <mxCell id="_JtfFcIbpI1z_g6PQEzy-12" style="edgeStyle=orthogonalEdgeStyle;rounded=0;orthogonalLoop=1;jettySize=auto;html=1;exitX=0.5;exitY=1;exitDx=0;exitDy=0;" edge="1" parent="1" source="_JtfFcIbpI1z_g6PQEzy-1" target="_JtfFcIbpI1z_g6PQEzy-6">
          <mxGeometry relative="1" as="geometry" />
        </mxCell>
        <mxCell id="_JtfFcIbpI1z_g6PQEzy-13" style="edgeStyle=orthogonalEdgeStyle;rounded=0;orthogonalLoop=1;jettySize=auto;html=1;exitX=0.5;exitY=1;exitDx=0;exitDy=0;entryX=0.5;entryY=0;entryDx=0;entryDy=0;" edge="1" parent="1" source="_JtfFcIbpI1z_g6PQEzy-1" target="_JtfFcIbpI1z_g6PQEzy-3">
          <mxGeometry relative="1" as="geometry" />
        </mxCell>
        <mxCell id="_JtfFcIbpI1z_g6PQEzy-16" style="edgeStyle=orthogonalEdgeStyle;rounded=0;orthogonalLoop=1;jettySize=auto;html=1;exitX=0.5;exitY=1;exitDx=0;exitDy=0;" edge="1" parent="1" source="_JtfFcIbpI1z_g6PQEzy-1" target="_JtfFcIbpI1z_g6PQEzy-15">
          <mxGeometry relative="1" as="geometry" />
        </mxCell>
        <mxCell id="_JtfFcIbpI1z_g6PQEzy-17" style="edgeStyle=orthogonalEdgeStyle;rounded=0;orthogonalLoop=1;jettySize=auto;html=1;exitX=0.5;exitY=1;exitDx=0;exitDy=0;entryX=0.5;entryY=0;entryDx=0;entryDy=0;" edge="1" parent="1" source="_JtfFcIbpI1z_g6PQEzy-1" target="_JtfFcIbpI1z_g6PQEzy-14">
          <mxGeometry relative="1" as="geometry" />
        </mxCell>
        <mxCell id="_JtfFcIbpI1z_g6PQEzy-18" value="By Interface" style="edgeLabel;html=1;align=center;verticalAlign=middle;resizable=0;points=[];" vertex="1" connectable="0" parent="_JtfFcIbpI1z_g6PQEzy-17">
          <mxGeometry x="0.5078" y="-2" relative="1" as="geometry">
            <mxPoint x="60" y="-17" as="offset" />
          </mxGeometry>
        </mxCell>
        <mxCell id="_JtfFcIbpI1z_g6PQEzy-1" value="Ice Wine Saling System" style="rounded=1;whiteSpace=wrap;html=1;" vertex="1" parent="1">
          <mxGeometry x="354" y="50" width="120" height="60" as="geometry" />
        </mxCell>
        <mxCell id="_JtfFcIbpI1z_g6PQEzy-5" style="edgeStyle=orthogonalEdgeStyle;rounded=0;orthogonalLoop=1;jettySize=auto;html=1;exitX=0.5;exitY=0;exitDx=0;exitDy=0;entryX=0.5;entryY=0;entryDx=0;entryDy=0;strokeColor=none;" edge="1" parent="1" source="_JtfFcIbpI1z_g6PQEzy-2" target="_JtfFcIbpI1z_g6PQEzy-2">
          <mxGeometry relative="1" as="geometry" />
        </mxCell>
        <mxCell id="_JtfFcIbpI1z_g6PQEzy-2" value="Employee Manage System" style="rounded=1;whiteSpace=wrap;html=1;" vertex="1" parent="1">
          <mxGeometry x="200" y="180" width="120" height="60" as="geometry" />
        </mxCell>
        <mxCell id="_JtfFcIbpI1z_g6PQEzy-3" value="Wine Manage System" style="rounded=1;whiteSpace=wrap;html=1;" vertex="1" parent="1">
          <mxGeometry x="520" y="180" width="120" height="60" as="geometry" />
        </mxCell>
        <mxCell id="_JtfFcIbpI1z_g6PQEzy-6" value="Order Manage System" style="rounded=1;whiteSpace=wrap;html=1;" vertex="1" parent="1">
          <mxGeometry x="354" y="180" width="120" height="60" as="geometry" />
        </mxCell>
        <mxCell id="_JtfFcIbpI1z_g6PQEzy-14" value="Finance Management" style="rounded=1;whiteSpace=wrap;html=1;" vertex="1" parent="1">
          <mxGeometry x="670" y="180" width="120" height="60" as="geometry" />
        </mxCell>
        <mxCell id="_JtfFcIbpI1z_g6PQEzy-15" value="Customer Manage System" style="rounded=1;whiteSpace=wrap;html=1;" vertex="1" parent="1">
          <mxGeometry x="30" y="180" width="120" height="60" as="geometry" />
        </mxCell>
        <mxCell id="_JtfFcIbpI1z_g6PQEzy-19" value="Employee" style="rounded=0;whiteSpace=wrap;html=1;" vertex="1" parent="1">
          <mxGeometry x="240" y="309" width="380" height="60" as="geometry" />
        </mxCell>
        <mxCell id="_JtfFcIbpI1z_g6PQEzy-28" style="edgeStyle=orthogonalEdgeStyle;rounded=0;orthogonalLoop=1;jettySize=auto;html=1;exitX=1;exitY=0;exitDx=0;exitDy=0;entryX=0.5;entryY=1;entryDx=0;entryDy=0;" edge="1" parent="1" source="_JtfFcIbpI1z_g6PQEzy-20" target="_JtfFcIbpI1z_g6PQEzy-19">
          <mxGeometry relative="1" as="geometry" />
        </mxCell>
        <mxCell id="_JtfFcIbpI1z_g6PQEzy-29" value="Provide Statics&amp;nbsp;&lt;br style=&quot;border-color: var(--border-color);&quot;&gt;Response request" style="edgeLabel;html=1;align=center;verticalAlign=middle;resizable=0;points=[];" vertex="1" connectable="0" parent="_JtfFcIbpI1z_g6PQEzy-28">
          <mxGeometry x="-0.09" relative="1" as="geometry">
            <mxPoint x="62" y="26" as="offset" />
          </mxGeometry>
        </mxCell>
        <mxCell id="_JtfFcIbpI1z_g6PQEzy-20" value="Order Management System" style="ellipse;whiteSpace=wrap;html=1;aspect=fixed;" vertex="1" parent="1">
          <mxGeometry x="334" y="497" width="192" height="192" as="geometry" />
        </mxCell>
        <mxCell id="_JtfFcIbpI1z_g6PQEzy-26" style="edgeStyle=orthogonalEdgeStyle;rounded=0;orthogonalLoop=1;jettySize=auto;html=1;exitX=0.5;exitY=1;exitDx=0;exitDy=0;entryX=0;entryY=0;entryDx=0;entryDy=0;" edge="1" parent="1" source="_JtfFcIbpI1z_g6PQEzy-19" target="_JtfFcIbpI1z_g6PQEzy-20">
          <mxGeometry relative="1" as="geometry" />
        </mxCell>
        <mxCell id="_JtfFcIbpI1z_g6PQEzy-30" value="Add/Delete/Alter Order" style="edgeLabel;html=1;align=center;verticalAlign=middle;resizable=0;points=[];" vertex="1" connectable="0" parent="_JtfFcIbpI1z_g6PQEzy-26">
          <mxGeometry x="0.2737" y="-3" relative="1" as="geometry">
            <mxPoint x="-64" y="18" as="offset" />
          </mxGeometry>
        </mxCell>
      </root>
    </mxGraphModel>
  </diagram>
  <diagram id="s-rQRAlNAv5GM6tJmDwp" name="Page-3">
    <mxGraphModel dx="1838" dy="2144" grid="1" gridSize="10" guides="1" tooltips="1" connect="1" arrows="1" fold="1" page="1" pageScale="1" pageWidth="827" pageHeight="1169" math="0" shadow="0">
      <root>
        <mxCell id="0" />
        <mxCell id="1" parent="0" />
        <mxCell id="t1jrMyz5I_X2ohJtVoqZ-1" style="edgeStyle=elbowEdgeStyle;rounded=0;orthogonalLoop=1;jettySize=auto;html=1;exitX=1;exitY=0.5;exitDx=0;exitDy=0;exitPerimeter=0;entryX=0;entryY=0.5;entryDx=0;entryDy=0;elbow=vertical;" edge="1" parent="1" source="t1jrMyz5I_X2ohJtVoqZ-2" target="t1jrMyz5I_X2ohJtVoqZ-3">
          <mxGeometry relative="1" as="geometry" />
        </mxCell>
        <mxCell id="t1jrMyz5I_X2ohJtVoqZ-2" value="Start" style="strokeWidth=2;html=1;shape=mxgraph.flowchart.terminator;whiteSpace=wrap;" vertex="1" parent="1">
          <mxGeometry x="90" y="270" width="100" height="60" as="geometry" />
        </mxCell>
        <mxCell id="t1jrMyz5I_X2ohJtVoqZ-3" value="Employee" style="rounded=1;whiteSpace=wrap;html=1;absoluteArcSize=1;arcSize=14;strokeWidth=2;" vertex="1" parent="1">
          <mxGeometry x="230" y="270" width="100" height="60" as="geometry" />
        </mxCell>
        <mxCell id="t1jrMyz5I_X2ohJtVoqZ-4" style="edgeStyle=elbowEdgeStyle;rounded=0;orthogonalLoop=1;jettySize=auto;html=1;exitX=1;exitY=0.5;exitDx=0;exitDy=0;exitPerimeter=0;entryX=0;entryY=0.5;entryDx=0;entryDy=0;elbow=vertical;" edge="1" parent="1">
          <mxGeometry relative="1" as="geometry">
            <mxPoint x="330" y="299.5" as="sourcePoint" />
            <mxPoint x="360" y="299.5" as="targetPoint" />
          </mxGeometry>
        </mxCell>
        <mxCell id="t1jrMyz5I_X2ohJtVoqZ-17" value="Log in" style="strokeWidth=2;html=1;shape=mxgraph.flowchart.start_2;whiteSpace=wrap;" vertex="1" parent="1">
          <mxGeometry x="360" y="260" width="80" height="80" as="geometry" />
        </mxCell>
        <mxCell id="t1jrMyz5I_X2ohJtVoqZ-41" value="" style="edgeStyle=orthogonalEdgeStyle;rounded=0;orthogonalLoop=1;jettySize=auto;html=1;" edge="1" parent="1" source="t1jrMyz5I_X2ohJtVoqZ-22" target="t1jrMyz5I_X2ohJtVoqZ-38">
          <mxGeometry relative="1" as="geometry" />
        </mxCell>
        <mxCell id="t1jrMyz5I_X2ohJtVoqZ-22" value="Alter Order Info" style="strokeWidth=2;html=1;shape=mxgraph.flowchart.start_1;whiteSpace=wrap;" vertex="1" parent="1">
          <mxGeometry x="520" y="210" width="100" height="60" as="geometry" />
        </mxCell>
        <mxCell id="t1jrMyz5I_X2ohJtVoqZ-37" value="" style="edgeStyle=orthogonalEdgeStyle;rounded=0;orthogonalLoop=1;jettySize=auto;html=1;" edge="1" parent="1" source="t1jrMyz5I_X2ohJtVoqZ-23" target="t1jrMyz5I_X2ohJtVoqZ-36">
          <mxGeometry relative="1" as="geometry" />
        </mxCell>
        <mxCell id="t1jrMyz5I_X2ohJtVoqZ-23" value="Get Order Info" style="strokeWidth=2;html=1;shape=mxgraph.flowchart.start_1;whiteSpace=wrap;" vertex="1" parent="1">
          <mxGeometry x="520" y="100" width="100" height="60" as="geometry" />
        </mxCell>
        <mxCell id="t1jrMyz5I_X2ohJtVoqZ-43" value="" style="edgeStyle=orthogonalEdgeStyle;rounded=0;orthogonalLoop=1;jettySize=auto;html=1;" edge="1" parent="1" source="t1jrMyz5I_X2ohJtVoqZ-24" target="t1jrMyz5I_X2ohJtVoqZ-42">
          <mxGeometry relative="1" as="geometry" />
        </mxCell>
        <mxCell id="t1jrMyz5I_X2ohJtVoqZ-24" value="Add Order" style="strokeWidth=2;html=1;shape=mxgraph.flowchart.start_1;whiteSpace=wrap;" vertex="1" parent="1">
          <mxGeometry x="520" y="330" width="100" height="60" as="geometry" />
        </mxCell>
        <mxCell id="t1jrMyz5I_X2ohJtVoqZ-47" value="" style="edgeStyle=orthogonalEdgeStyle;rounded=0;orthogonalLoop=1;jettySize=auto;html=1;" edge="1" parent="1" source="t1jrMyz5I_X2ohJtVoqZ-26" target="t1jrMyz5I_X2ohJtVoqZ-46">
          <mxGeometry relative="1" as="geometry" />
        </mxCell>
        <mxCell id="t1jrMyz5I_X2ohJtVoqZ-26" value="Summary" style="strokeWidth=2;html=1;shape=mxgraph.flowchart.start_1;whiteSpace=wrap;" vertex="1" parent="1">
          <mxGeometry x="520" y="440" width="100" height="60" as="geometry" />
        </mxCell>
        <mxCell id="t1jrMyz5I_X2ohJtVoqZ-27" value="" style="endArrow=classic;html=1;rounded=0;exitX=1;exitY=0.5;exitDx=0;exitDy=0;exitPerimeter=0;entryX=0;entryY=0.5;entryDx=0;entryDy=0;entryPerimeter=0;" edge="1" parent="1" source="t1jrMyz5I_X2ohJtVoqZ-17" target="t1jrMyz5I_X2ohJtVoqZ-23">
          <mxGeometry width="50" height="50" relative="1" as="geometry">
            <mxPoint x="630" y="390" as="sourcePoint" />
            <mxPoint x="680" y="340" as="targetPoint" />
          </mxGeometry>
        </mxCell>
        <mxCell id="t1jrMyz5I_X2ohJtVoqZ-30" value="" style="endArrow=classic;html=1;rounded=0;exitX=1;exitY=0.5;exitDx=0;exitDy=0;exitPerimeter=0;entryX=0;entryY=0.5;entryDx=0;entryDy=0;entryPerimeter=0;" edge="1" parent="1" source="t1jrMyz5I_X2ohJtVoqZ-17" target="t1jrMyz5I_X2ohJtVoqZ-22">
          <mxGeometry width="50" height="50" relative="1" as="geometry">
            <mxPoint x="630" y="390" as="sourcePoint" />
            <mxPoint x="680" y="340" as="targetPoint" />
          </mxGeometry>
        </mxCell>
        <mxCell id="t1jrMyz5I_X2ohJtVoqZ-31" value="" style="endArrow=classic;html=1;rounded=0;exitX=1;exitY=0.5;exitDx=0;exitDy=0;exitPerimeter=0;entryX=0;entryY=0.5;entryDx=0;entryDy=0;entryPerimeter=0;" edge="1" parent="1" source="t1jrMyz5I_X2ohJtVoqZ-17" target="t1jrMyz5I_X2ohJtVoqZ-24">
          <mxGeometry width="50" height="50" relative="1" as="geometry">
            <mxPoint x="630" y="390" as="sourcePoint" />
            <mxPoint x="680" y="340" as="targetPoint" />
          </mxGeometry>
        </mxCell>
        <mxCell id="t1jrMyz5I_X2ohJtVoqZ-32" value="" style="endArrow=classic;html=1;rounded=0;exitX=1;exitY=0.5;exitDx=0;exitDy=0;exitPerimeter=0;entryX=0;entryY=0.5;entryDx=0;entryDy=0;entryPerimeter=0;" edge="1" parent="1" source="t1jrMyz5I_X2ohJtVoqZ-17" target="t1jrMyz5I_X2ohJtVoqZ-26">
          <mxGeometry width="50" height="50" relative="1" as="geometry">
            <mxPoint x="630" y="390" as="sourcePoint" />
            <mxPoint x="680" y="340" as="targetPoint" />
          </mxGeometry>
        </mxCell>
        <mxCell id="t1jrMyz5I_X2ohJtVoqZ-36" value="Show Order Info" style="strokeWidth=2;html=1;shape=mxgraph.flowchart.start_2;whiteSpace=wrap;" vertex="1" parent="1">
          <mxGeometry x="650" y="80" width="100" height="100" as="geometry" />
        </mxCell>
        <mxCell id="t1jrMyz5I_X2ohJtVoqZ-40" value="" style="edgeStyle=orthogonalEdgeStyle;rounded=0;orthogonalLoop=1;jettySize=auto;html=1;" edge="1" parent="1" source="t1jrMyz5I_X2ohJtVoqZ-38" target="t1jrMyz5I_X2ohJtVoqZ-39">
          <mxGeometry relative="1" as="geometry" />
        </mxCell>
        <mxCell id="t1jrMyz5I_X2ohJtVoqZ-38" value="Confirm" style="strokeWidth=2;html=1;shape=mxgraph.flowchart.start_2;whiteSpace=wrap;" vertex="1" parent="1">
          <mxGeometry x="650" y="190" width="100" height="100" as="geometry" />
        </mxCell>
        <mxCell id="t1jrMyz5I_X2ohJtVoqZ-39" value="Save Info" style="ellipse;whiteSpace=wrap;html=1;strokeWidth=2;" vertex="1" parent="1">
          <mxGeometry x="820" y="200" width="80" height="80" as="geometry" />
        </mxCell>
        <mxCell id="t1jrMyz5I_X2ohJtVoqZ-45" value="" style="edgeStyle=orthogonalEdgeStyle;rounded=0;orthogonalLoop=1;jettySize=auto;html=1;" edge="1" parent="1" source="t1jrMyz5I_X2ohJtVoqZ-42" target="t1jrMyz5I_X2ohJtVoqZ-44">
          <mxGeometry relative="1" as="geometry" />
        </mxCell>
        <mxCell id="t1jrMyz5I_X2ohJtVoqZ-42" value="Confirm" style="ellipse;whiteSpace=wrap;html=1;strokeWidth=2;" vertex="1" parent="1">
          <mxGeometry x="660" y="320" width="80" height="80" as="geometry" />
        </mxCell>
        <mxCell id="t1jrMyz5I_X2ohJtVoqZ-44" value="Save Info" style="ellipse;whiteSpace=wrap;html=1;strokeWidth=2;" vertex="1" parent="1">
          <mxGeometry x="820" y="320" width="80" height="80" as="geometry" />
        </mxCell>
        <mxCell id="t1jrMyz5I_X2ohJtVoqZ-54" style="edgeStyle=orthogonalEdgeStyle;rounded=0;orthogonalLoop=1;jettySize=auto;html=1;exitX=1;exitY=0.5;exitDx=0;exitDy=0;" edge="1" parent="1" source="t1jrMyz5I_X2ohJtVoqZ-46">
          <mxGeometry relative="1" as="geometry">
            <mxPoint x="1050" y="330" as="targetPoint" />
          </mxGeometry>
        </mxCell>
        <mxCell id="t1jrMyz5I_X2ohJtVoqZ-46" value="Show Summary" style="ellipse;whiteSpace=wrap;html=1;strokeWidth=2;" vertex="1" parent="1">
          <mxGeometry x="660" y="430" width="80" height="80" as="geometry" />
        </mxCell>
        <mxCell id="t1jrMyz5I_X2ohJtVoqZ-50" value="End" style="strokeWidth=2;html=1;shape=mxgraph.flowchart.terminator;whiteSpace=wrap;" vertex="1" parent="1">
          <mxGeometry x="1000" y="270" width="100" height="60" as="geometry" />
        </mxCell>
        <mxCell id="t1jrMyz5I_X2ohJtVoqZ-51" style="edgeStyle=orthogonalEdgeStyle;rounded=0;orthogonalLoop=1;jettySize=auto;html=1;exitX=1;exitY=0.5;exitDx=0;exitDy=0;exitPerimeter=0;entryX=0.5;entryY=0;entryDx=0;entryDy=0;entryPerimeter=0;" edge="1" parent="1" source="t1jrMyz5I_X2ohJtVoqZ-36" target="t1jrMyz5I_X2ohJtVoqZ-50">
          <mxGeometry relative="1" as="geometry" />
        </mxCell>
        <mxCell id="t1jrMyz5I_X2ohJtVoqZ-52" style="edgeStyle=orthogonalEdgeStyle;rounded=0;orthogonalLoop=1;jettySize=auto;html=1;exitX=1;exitY=0.5;exitDx=0;exitDy=0;entryX=0.5;entryY=0;entryDx=0;entryDy=0;entryPerimeter=0;" edge="1" parent="1" source="t1jrMyz5I_X2ohJtVoqZ-39" target="t1jrMyz5I_X2ohJtVoqZ-50">
          <mxGeometry relative="1" as="geometry" />
        </mxCell>
        <mxCell id="t1jrMyz5I_X2ohJtVoqZ-53" style="edgeStyle=orthogonalEdgeStyle;rounded=0;orthogonalLoop=1;jettySize=auto;html=1;exitX=1;exitY=0.5;exitDx=0;exitDy=0;entryX=0.5;entryY=1;entryDx=0;entryDy=0;entryPerimeter=0;" edge="1" parent="1" source="t1jrMyz5I_X2ohJtVoqZ-44" target="t1jrMyz5I_X2ohJtVoqZ-50">
          <mxGeometry relative="1" as="geometry" />
        </mxCell>
        <mxCell id="t1jrMyz5I_X2ohJtVoqZ-58" style="edgeStyle=orthogonalEdgeStyle;rounded=0;orthogonalLoop=1;jettySize=auto;html=1;exitX=0.5;exitY=0;exitDx=0;exitDy=0;exitPerimeter=0;" edge="1" parent="1" source="t1jrMyz5I_X2ohJtVoqZ-55">
          <mxGeometry relative="1" as="geometry">
            <mxPoint x="570" y="500" as="targetPoint" />
          </mxGeometry>
        </mxCell>
        <mxCell id="t1jrMyz5I_X2ohJtVoqZ-59" style="edgeStyle=orthogonalEdgeStyle;rounded=0;orthogonalLoop=1;jettySize=auto;html=1;exitX=1;exitY=0.5;exitDx=0;exitDy=0;exitPerimeter=0;" edge="1" parent="1" source="t1jrMyz5I_X2ohJtVoqZ-55" target="t1jrMyz5I_X2ohJtVoqZ-44">
          <mxGeometry relative="1" as="geometry" />
        </mxCell>
        <mxCell id="t1jrMyz5I_X2ohJtVoqZ-55" value="Order Abstract" style="strokeWidth=2;html=1;shape=mxgraph.flowchart.database;whiteSpace=wrap;" vertex="1" parent="1">
          <mxGeometry x="515" y="640" width="110" height="100" as="geometry" />
        </mxCell>
        <mxCell id="t1jrMyz5I_X2ohJtVoqZ-57" style="edgeStyle=orthogonalEdgeStyle;rounded=0;orthogonalLoop=1;jettySize=auto;html=1;exitX=0.5;exitY=0;exitDx=0;exitDy=0;exitPerimeter=0;" edge="1" parent="1" source="t1jrMyz5I_X2ohJtVoqZ-56" target="t1jrMyz5I_X2ohJtVoqZ-26">
          <mxGeometry relative="1" as="geometry" />
        </mxCell>
        <mxCell id="t1jrMyz5I_X2ohJtVoqZ-60" style="edgeStyle=orthogonalEdgeStyle;rounded=0;orthogonalLoop=1;jettySize=auto;html=1;exitX=1;exitY=0.5;exitDx=0;exitDy=0;exitPerimeter=0;" edge="1" parent="1" source="t1jrMyz5I_X2ohJtVoqZ-56">
          <mxGeometry relative="1" as="geometry">
            <mxPoint x="860" y="400" as="targetPoint" />
          </mxGeometry>
        </mxCell>
        <mxCell id="t1jrMyz5I_X2ohJtVoqZ-56" value="Order Detail" style="strokeWidth=2;html=1;shape=mxgraph.flowchart.database;whiteSpace=wrap;" vertex="1" parent="1">
          <mxGeometry x="304" y="520" width="110" height="100" as="geometry" />
        </mxCell>
        <mxCell id="t1jrMyz5I_X2ohJtVoqZ-65" style="edgeStyle=orthogonalEdgeStyle;rounded=0;orthogonalLoop=1;jettySize=auto;html=1;exitX=0.5;exitY=1;exitDx=0;exitDy=0;exitPerimeter=0;" edge="1" parent="1" source="t1jrMyz5I_X2ohJtVoqZ-63" target="t1jrMyz5I_X2ohJtVoqZ-39">
          <mxGeometry relative="1" as="geometry" />
        </mxCell>
        <mxCell id="t1jrMyz5I_X2ohJtVoqZ-63" value="Order Detail" style="strokeWidth=2;html=1;shape=mxgraph.flowchart.database;whiteSpace=wrap;" vertex="1" parent="1">
          <mxGeometry x="805" y="-60" width="110" height="100" as="geometry" />
        </mxCell>
        <mxCell id="t1jrMyz5I_X2ohJtVoqZ-66" style="edgeStyle=orthogonalEdgeStyle;rounded=0;orthogonalLoop=1;jettySize=auto;html=1;exitX=0.5;exitY=1;exitDx=0;exitDy=0;exitPerimeter=0;entryX=0.5;entryY=0;entryDx=0;entryDy=0;" edge="1" parent="1" source="t1jrMyz5I_X2ohJtVoqZ-64" target="t1jrMyz5I_X2ohJtVoqZ-39">
          <mxGeometry relative="1" as="geometry" />
        </mxCell>
        <mxCell id="t1jrMyz5I_X2ohJtVoqZ-68" style="edgeStyle=orthogonalEdgeStyle;rounded=0;orthogonalLoop=1;jettySize=auto;html=1;exitX=0.5;exitY=1;exitDx=0;exitDy=0;exitPerimeter=0;" edge="1" parent="1" source="t1jrMyz5I_X2ohJtVoqZ-64">
          <mxGeometry relative="1" as="geometry">
            <mxPoint x="700" y="80" as="targetPoint" />
          </mxGeometry>
        </mxCell>
        <mxCell id="t1jrMyz5I_X2ohJtVoqZ-64" value="Order Abstract" style="strokeWidth=2;html=1;shape=mxgraph.flowchart.database;whiteSpace=wrap;" vertex="1" parent="1">
          <mxGeometry x="930" y="-60" width="110" height="100" as="geometry" />
        </mxCell>
        <mxCell id="t1jrMyz5I_X2ohJtVoqZ-67" style="edgeStyle=orthogonalEdgeStyle;rounded=0;orthogonalLoop=1;jettySize=auto;html=1;exitX=0.5;exitY=1;exitDx=0;exitDy=0;exitPerimeter=0;entryX=0.5;entryY=0;entryDx=0;entryDy=0;entryPerimeter=0;" edge="1" parent="1" source="t1jrMyz5I_X2ohJtVoqZ-63" target="t1jrMyz5I_X2ohJtVoqZ-36">
          <mxGeometry relative="1" as="geometry" />
        </mxCell>
      </root>
    </mxGraphModel>
  </diagram>
  <diagram id="YpddNx7aovYUCIuUMmA3" name="Page-4">
    <mxGraphModel dx="1562" dy="1998" grid="1" gridSize="10" guides="1" tooltips="1" connect="1" arrows="1" fold="1" page="1" pageScale="1" pageWidth="827" pageHeight="1169" math="0" shadow="0">
      <root>
        <mxCell id="0" />
        <mxCell id="1" parent="0" />
        <mxCell id="4qYNfew1BDeuU2tRjSK9-1" style="edgeStyle=elbowEdgeStyle;rounded=0;orthogonalLoop=1;jettySize=auto;html=1;exitX=1;exitY=0.5;exitDx=0;exitDy=0;exitPerimeter=0;entryX=0;entryY=0.5;entryDx=0;entryDy=0;elbow=vertical;" edge="1" parent="1" source="4qYNfew1BDeuU2tRjSK9-2" target="4qYNfew1BDeuU2tRjSK9-3">
          <mxGeometry relative="1" as="geometry" />
        </mxCell>
        <mxCell id="4qYNfew1BDeuU2tRjSK9-2" value="Start" style="strokeWidth=2;html=1;shape=mxgraph.flowchart.terminator;whiteSpace=wrap;" vertex="1" parent="1">
          <mxGeometry x="90" y="270" width="100" height="60" as="geometry" />
        </mxCell>
        <mxCell id="4qYNfew1BDeuU2tRjSK9-3" value="Employee" style="rounded=1;whiteSpace=wrap;html=1;absoluteArcSize=1;arcSize=14;strokeWidth=2;" vertex="1" parent="1">
          <mxGeometry x="230" y="270" width="100" height="60" as="geometry" />
        </mxCell>
        <mxCell id="4qYNfew1BDeuU2tRjSK9-4" style="edgeStyle=elbowEdgeStyle;rounded=0;orthogonalLoop=1;jettySize=auto;html=1;exitX=1;exitY=0.5;exitDx=0;exitDy=0;exitPerimeter=0;entryX=0;entryY=0.5;entryDx=0;entryDy=0;elbow=vertical;" edge="1" parent="1">
          <mxGeometry relative="1" as="geometry">
            <mxPoint x="330" y="299.5" as="sourcePoint" />
            <mxPoint x="360" y="299.5" as="targetPoint" />
          </mxGeometry>
        </mxCell>
        <mxCell id="4qYNfew1BDeuU2tRjSK9-5" value="Log in" style="strokeWidth=2;html=1;shape=mxgraph.flowchart.start_2;whiteSpace=wrap;" vertex="1" parent="1">
          <mxGeometry x="360" y="260" width="80" height="80" as="geometry" />
        </mxCell>
        <mxCell id="4qYNfew1BDeuU2tRjSK9-6" value="" style="edgeStyle=orthogonalEdgeStyle;rounded=0;orthogonalLoop=1;jettySize=auto;html=1;" edge="1" parent="1" source="4qYNfew1BDeuU2tRjSK9-7" target="4qYNfew1BDeuU2tRjSK9-20">
          <mxGeometry relative="1" as="geometry" />
        </mxCell>
        <mxCell id="4qYNfew1BDeuU2tRjSK9-7" value="Change Ice WIne Info" style="strokeWidth=2;html=1;shape=mxgraph.flowchart.start_1;whiteSpace=wrap;" vertex="1" parent="1">
          <mxGeometry x="510" y="210" width="110" height="80" as="geometry" />
        </mxCell>
        <mxCell id="4qYNfew1BDeuU2tRjSK9-8" value="" style="edgeStyle=orthogonalEdgeStyle;rounded=0;orthogonalLoop=1;jettySize=auto;html=1;" edge="1" parent="1" source="4qYNfew1BDeuU2tRjSK9-9" target="4qYNfew1BDeuU2tRjSK9-18">
          <mxGeometry relative="1" as="geometry" />
        </mxCell>
        <mxCell id="4qYNfew1BDeuU2tRjSK9-9" value="Get Ice Wine Info" style="strokeWidth=2;html=1;shape=mxgraph.flowchart.start_1;whiteSpace=wrap;" vertex="1" parent="1">
          <mxGeometry x="510" y="85" width="110" height="90" as="geometry" />
        </mxCell>
        <mxCell id="4qYNfew1BDeuU2tRjSK9-10" value="" style="edgeStyle=orthogonalEdgeStyle;rounded=0;orthogonalLoop=1;jettySize=auto;html=1;" edge="1" parent="1" source="4qYNfew1BDeuU2tRjSK9-11" target="4qYNfew1BDeuU2tRjSK9-23">
          <mxGeometry relative="1" as="geometry" />
        </mxCell>
        <mxCell id="4qYNfew1BDeuU2tRjSK9-11" value="Add New Ice Wine" style="strokeWidth=2;html=1;shape=mxgraph.flowchart.start_1;whiteSpace=wrap;" vertex="1" parent="1">
          <mxGeometry x="510" y="320" width="110" height="80" as="geometry" />
        </mxCell>
        <mxCell id="4qYNfew1BDeuU2tRjSK9-14" value="" style="endArrow=classic;html=1;rounded=0;exitX=1;exitY=0.5;exitDx=0;exitDy=0;exitPerimeter=0;entryX=0;entryY=0.5;entryDx=0;entryDy=0;entryPerimeter=0;" edge="1" parent="1" source="4qYNfew1BDeuU2tRjSK9-5" target="4qYNfew1BDeuU2tRjSK9-9">
          <mxGeometry width="50" height="50" relative="1" as="geometry">
            <mxPoint x="630" y="390" as="sourcePoint" />
            <mxPoint x="680" y="340" as="targetPoint" />
          </mxGeometry>
        </mxCell>
        <mxCell id="4qYNfew1BDeuU2tRjSK9-15" value="" style="endArrow=classic;html=1;rounded=0;exitX=1;exitY=0.5;exitDx=0;exitDy=0;exitPerimeter=0;entryX=0;entryY=0.5;entryDx=0;entryDy=0;entryPerimeter=0;" edge="1" parent="1" source="4qYNfew1BDeuU2tRjSK9-5" target="4qYNfew1BDeuU2tRjSK9-7">
          <mxGeometry width="50" height="50" relative="1" as="geometry">
            <mxPoint x="630" y="390" as="sourcePoint" />
            <mxPoint x="680" y="340" as="targetPoint" />
          </mxGeometry>
        </mxCell>
        <mxCell id="4qYNfew1BDeuU2tRjSK9-16" value="" style="endArrow=classic;html=1;rounded=0;exitX=1;exitY=0.5;exitDx=0;exitDy=0;exitPerimeter=0;entryX=0;entryY=0.5;entryDx=0;entryDy=0;entryPerimeter=0;" edge="1" parent="1" source="4qYNfew1BDeuU2tRjSK9-5" target="4qYNfew1BDeuU2tRjSK9-11">
          <mxGeometry width="50" height="50" relative="1" as="geometry">
            <mxPoint x="630" y="390" as="sourcePoint" />
            <mxPoint x="680" y="340" as="targetPoint" />
          </mxGeometry>
        </mxCell>
        <mxCell id="4qYNfew1BDeuU2tRjSK9-18" value="Show Ice Wine Info" style="strokeWidth=2;html=1;shape=mxgraph.flowchart.start_2;whiteSpace=wrap;" vertex="1" parent="1">
          <mxGeometry x="650" y="80" width="100" height="100" as="geometry" />
        </mxCell>
        <mxCell id="4qYNfew1BDeuU2tRjSK9-19" value="" style="edgeStyle=orthogonalEdgeStyle;rounded=0;orthogonalLoop=1;jettySize=auto;html=1;" edge="1" parent="1" source="4qYNfew1BDeuU2tRjSK9-20" target="4qYNfew1BDeuU2tRjSK9-21">
          <mxGeometry relative="1" as="geometry" />
        </mxCell>
        <mxCell id="4qYNfew1BDeuU2tRjSK9-20" value="Confirm" style="strokeWidth=2;html=1;shape=mxgraph.flowchart.start_2;whiteSpace=wrap;" vertex="1" parent="1">
          <mxGeometry x="665" y="200" width="100" height="100" as="geometry" />
        </mxCell>
        <mxCell id="4qYNfew1BDeuU2tRjSK9-21" value="Save Info" style="ellipse;whiteSpace=wrap;html=1;strokeWidth=2;" vertex="1" parent="1">
          <mxGeometry x="835" y="210" width="80" height="80" as="geometry" />
        </mxCell>
        <mxCell id="4qYNfew1BDeuU2tRjSK9-22" value="" style="edgeStyle=orthogonalEdgeStyle;rounded=0;orthogonalLoop=1;jettySize=auto;html=1;" edge="1" parent="1" source="4qYNfew1BDeuU2tRjSK9-23" target="4qYNfew1BDeuU2tRjSK9-24">
          <mxGeometry relative="1" as="geometry" />
        </mxCell>
        <mxCell id="4qYNfew1BDeuU2tRjSK9-23" value="Confirm" style="ellipse;whiteSpace=wrap;html=1;strokeWidth=2;" vertex="1" parent="1">
          <mxGeometry x="670" y="315" width="90" height="90" as="geometry" />
        </mxCell>
        <mxCell id="4qYNfew1BDeuU2tRjSK9-24" value="Save Info" style="ellipse;whiteSpace=wrap;html=1;strokeWidth=2;" vertex="1" parent="1">
          <mxGeometry x="820" y="320" width="80" height="80" as="geometry" />
        </mxCell>
        <mxCell id="4qYNfew1BDeuU2tRjSK9-27" value="End" style="strokeWidth=2;html=1;shape=mxgraph.flowchart.terminator;whiteSpace=wrap;" vertex="1" parent="1">
          <mxGeometry x="1000" y="270" width="100" height="60" as="geometry" />
        </mxCell>
        <mxCell id="4qYNfew1BDeuU2tRjSK9-28" style="edgeStyle=orthogonalEdgeStyle;rounded=0;orthogonalLoop=1;jettySize=auto;html=1;exitX=1;exitY=0.5;exitDx=0;exitDy=0;exitPerimeter=0;entryX=0.5;entryY=0;entryDx=0;entryDy=0;entryPerimeter=0;" edge="1" parent="1" source="4qYNfew1BDeuU2tRjSK9-18" target="4qYNfew1BDeuU2tRjSK9-27">
          <mxGeometry relative="1" as="geometry" />
        </mxCell>
        <mxCell id="4qYNfew1BDeuU2tRjSK9-29" style="edgeStyle=orthogonalEdgeStyle;rounded=0;orthogonalLoop=1;jettySize=auto;html=1;exitX=1;exitY=0.5;exitDx=0;exitDy=0;entryX=0.5;entryY=0;entryDx=0;entryDy=0;entryPerimeter=0;" edge="1" parent="1" source="4qYNfew1BDeuU2tRjSK9-21" target="4qYNfew1BDeuU2tRjSK9-27">
          <mxGeometry relative="1" as="geometry" />
        </mxCell>
        <mxCell id="4qYNfew1BDeuU2tRjSK9-30" style="edgeStyle=orthogonalEdgeStyle;rounded=0;orthogonalLoop=1;jettySize=auto;html=1;exitX=1;exitY=0.5;exitDx=0;exitDy=0;entryX=0.5;entryY=1;entryDx=0;entryDy=0;entryPerimeter=0;" edge="1" parent="1" source="4qYNfew1BDeuU2tRjSK9-24" target="4qYNfew1BDeuU2tRjSK9-27">
          <mxGeometry relative="1" as="geometry" />
        </mxCell>
        <mxCell id="4qYNfew1BDeuU2tRjSK9-37" style="edgeStyle=orthogonalEdgeStyle;rounded=0;orthogonalLoop=1;jettySize=auto;html=1;exitX=0.5;exitY=1;exitDx=0;exitDy=0;exitPerimeter=0;" edge="1" parent="1" source="4qYNfew1BDeuU2tRjSK9-38" target="4qYNfew1BDeuU2tRjSK9-21">
          <mxGeometry relative="1" as="geometry" />
        </mxCell>
        <mxCell id="4qYNfew1BDeuU2tRjSK9-43" style="edgeStyle=orthogonalEdgeStyle;rounded=0;orthogonalLoop=1;jettySize=auto;html=1;exitX=0.5;exitY=1;exitDx=0;exitDy=0;exitPerimeter=0;" edge="1" parent="1" source="4qYNfew1BDeuU2tRjSK9-38" target="4qYNfew1BDeuU2tRjSK9-24">
          <mxGeometry relative="1" as="geometry">
            <Array as="points">
              <mxPoint x="945" y="180" />
              <mxPoint x="800" y="180" />
              <mxPoint x="800" y="360" />
            </Array>
          </mxGeometry>
        </mxCell>
        <mxCell id="4qYNfew1BDeuU2tRjSK9-38" value="Ice Wine" style="strokeWidth=2;html=1;shape=mxgraph.flowchart.database;whiteSpace=wrap;" vertex="1" parent="1">
          <mxGeometry x="890" y="-60" width="110" height="100" as="geometry" />
        </mxCell>
        <mxCell id="4qYNfew1BDeuU2tRjSK9-42" style="edgeStyle=orthogonalEdgeStyle;rounded=0;orthogonalLoop=1;jettySize=auto;html=1;exitX=0.5;exitY=1;exitDx=0;exitDy=0;exitPerimeter=0;entryX=0.5;entryY=0;entryDx=0;entryDy=0;entryPerimeter=0;" edge="1" parent="1" source="4qYNfew1BDeuU2tRjSK9-38" target="4qYNfew1BDeuU2tRjSK9-18">
          <mxGeometry relative="1" as="geometry" />
        </mxCell>
      </root>
    </mxGraphModel>
  </diagram>
  <diagram id="jPhQfq3FbdXbudTq9PNz" name="Page-5">
    <mxGraphModel dx="1562" dy="829" grid="1" gridSize="10" guides="1" tooltips="1" connect="1" arrows="1" fold="1" page="1" pageScale="1" pageWidth="827" pageHeight="1169" math="0" shadow="0">
      <root>
        <mxCell id="0" />
        <mxCell id="1" parent="0" />
        <mxCell id="jPni55zsNNdODauZ0blL-1" style="edgeStyle=elbowEdgeStyle;rounded=0;orthogonalLoop=1;jettySize=auto;html=1;exitX=1;exitY=0.5;exitDx=0;exitDy=0;exitPerimeter=0;entryX=0;entryY=0.5;entryDx=0;entryDy=0;elbow=vertical;" edge="1" parent="1" source="jPni55zsNNdODauZ0blL-2" target="jPni55zsNNdODauZ0blL-3">
          <mxGeometry relative="1" as="geometry" />
        </mxCell>
        <mxCell id="jPni55zsNNdODauZ0blL-2" value="Start" style="strokeWidth=2;html=1;shape=mxgraph.flowchart.terminator;whiteSpace=wrap;" vertex="1" parent="1">
          <mxGeometry x="34" y="50" width="100" height="60" as="geometry" />
        </mxCell>
        <mxCell id="jPni55zsNNdODauZ0blL-3" value="Owner" style="rounded=1;whiteSpace=wrap;html=1;absoluteArcSize=1;arcSize=14;strokeWidth=2;" vertex="1" parent="1">
          <mxGeometry x="164" y="50" width="100" height="60" as="geometry" />
        </mxCell>
        <mxCell id="jPni55zsNNdODauZ0blL-4" style="edgeStyle=elbowEdgeStyle;rounded=0;orthogonalLoop=1;jettySize=auto;html=1;exitX=1;exitY=0.5;exitDx=0;exitDy=0;exitPerimeter=0;entryX=0;entryY=0.5;entryDx=0;entryDy=0;elbow=vertical;" edge="1" parent="1">
          <mxGeometry relative="1" as="geometry">
            <mxPoint x="264" y="80" as="sourcePoint" />
            <mxPoint x="294" y="80" as="targetPoint" />
          </mxGeometry>
        </mxCell>
        <mxCell id="jPni55zsNNdODauZ0blL-5" value="" style="edgeStyle=orthogonalEdgeStyle;rounded=0;orthogonalLoop=1;jettySize=auto;html=1;" edge="1" parent="1" source="jPni55zsNNdODauZ0blL-16" target="jPni55zsNNdODauZ0blL-10">
          <mxGeometry relative="1" as="geometry" />
        </mxCell>
        <mxCell id="jPni55zsNNdODauZ0blL-6" value="Show Employee List" style="strokeWidth=2;html=1;shape=mxgraph.flowchart.start_2;whiteSpace=wrap;" vertex="1" parent="1">
          <mxGeometry x="404" y="40" width="80" height="80" as="geometry" />
        </mxCell>
        <mxCell id="jPni55zsNNdODauZ0blL-10" value="End" style="strokeWidth=2;html=1;shape=mxgraph.flowchart.terminator;whiteSpace=wrap;" vertex="1" parent="1">
          <mxGeometry x="670" y="170" width="100" height="60" as="geometry" />
        </mxCell>
        <mxCell id="jPni55zsNNdODauZ0blL-11" value="" style="edgeStyle=orthogonalEdgeStyle;rounded=0;orthogonalLoop=1;jettySize=auto;html=1;" edge="1" parent="1" source="jPni55zsNNdODauZ0blL-12" target="jPni55zsNNdODauZ0blL-6">
          <mxGeometry relative="1" as="geometry" />
        </mxCell>
        <mxCell id="jPni55zsNNdODauZ0blL-12" value="Request to Show Employee" style="strokeWidth=2;html=1;shape=mxgraph.flowchart.start_2;whiteSpace=wrap;" vertex="1" parent="1">
          <mxGeometry x="294" y="40" width="80" height="80" as="geometry" />
        </mxCell>
        <mxCell id="jPni55zsNNdODauZ0blL-16" value="Store Employee List to database" style="strokeWidth=2;html=1;shape=mxgraph.flowchart.start_2;whiteSpace=wrap;" vertex="1" parent="1">
          <mxGeometry x="530" y="160" width="80" height="80" as="geometry" />
        </mxCell>
        <mxCell id="jPni55zsNNdODauZ0blL-20" value="" style="edgeStyle=orthogonalEdgeStyle;rounded=0;orthogonalLoop=1;jettySize=auto;html=1;" edge="1" parent="1" source="jPni55zsNNdODauZ0blL-17" target="jPni55zsNNdODauZ0blL-19">
          <mxGeometry relative="1" as="geometry" />
        </mxCell>
        <mxCell id="jPni55zsNNdODauZ0blL-17" value="Request to Show Edit Employee" style="strokeWidth=2;html=1;shape=mxgraph.flowchart.start_2;whiteSpace=wrap;" vertex="1" parent="1">
          <mxGeometry x="294" y="160" width="80" height="80" as="geometry" />
        </mxCell>
        <mxCell id="jPni55zsNNdODauZ0blL-24" value="" style="edgeStyle=orthogonalEdgeStyle;rounded=0;orthogonalLoop=1;jettySize=auto;html=1;" edge="1" parent="1" source="jPni55zsNNdODauZ0blL-18" target="jPni55zsNNdODauZ0blL-23">
          <mxGeometry relative="1" as="geometry" />
        </mxCell>
        <mxCell id="jPni55zsNNdODauZ0blL-18" value="Request to Get Performance Of Employee" style="strokeWidth=2;html=1;shape=mxgraph.flowchart.start_2;whiteSpace=wrap;" vertex="1" parent="1">
          <mxGeometry x="281" y="280" width="106" height="100" as="geometry" />
        </mxCell>
        <mxCell id="jPni55zsNNdODauZ0blL-21" value="" style="edgeStyle=orthogonalEdgeStyle;rounded=0;orthogonalLoop=1;jettySize=auto;html=1;" edge="1" parent="1" source="jPni55zsNNdODauZ0blL-19" target="jPni55zsNNdODauZ0blL-16">
          <mxGeometry relative="1" as="geometry" />
        </mxCell>
        <mxCell id="jPni55zsNNdODauZ0blL-19" value="Confirm" style="ellipse;whiteSpace=wrap;html=1;strokeWidth=2;" vertex="1" parent="1">
          <mxGeometry x="404" y="160" width="80" height="80" as="geometry" />
        </mxCell>
        <mxCell id="jPni55zsNNdODauZ0blL-22" style="edgeStyle=orthogonalEdgeStyle;rounded=0;orthogonalLoop=1;jettySize=auto;html=1;exitX=1;exitY=0.5;exitDx=0;exitDy=0;exitPerimeter=0;entryX=0.5;entryY=0;entryDx=0;entryDy=0;entryPerimeter=0;" edge="1" parent="1" source="jPni55zsNNdODauZ0blL-6" target="jPni55zsNNdODauZ0blL-10">
          <mxGeometry relative="1" as="geometry" />
        </mxCell>
        <mxCell id="jPni55zsNNdODauZ0blL-23" value="Show Performance" style="ellipse;whiteSpace=wrap;html=1;strokeWidth=2;" vertex="1" parent="1">
          <mxGeometry x="450" y="290" width="80" height="80" as="geometry" />
        </mxCell>
        <mxCell id="jPni55zsNNdODauZ0blL-25" style="edgeStyle=orthogonalEdgeStyle;rounded=0;orthogonalLoop=1;jettySize=auto;html=1;exitX=1;exitY=0.5;exitDx=0;exitDy=0;entryX=0.5;entryY=1;entryDx=0;entryDy=0;entryPerimeter=0;" edge="1" parent="1" source="jPni55zsNNdODauZ0blL-23" target="jPni55zsNNdODauZ0blL-10">
          <mxGeometry relative="1" as="geometry" />
        </mxCell>
        <mxCell id="jPni55zsNNdODauZ0blL-26" style="edgeStyle=orthogonalEdgeStyle;rounded=0;orthogonalLoop=1;jettySize=auto;html=1;exitX=0.5;exitY=1;exitDx=0;exitDy=0;entryX=0;entryY=0.5;entryDx=0;entryDy=0;entryPerimeter=0;" edge="1" parent="1" source="jPni55zsNNdODauZ0blL-3" target="jPni55zsNNdODauZ0blL-17">
          <mxGeometry relative="1" as="geometry" />
        </mxCell>
        <mxCell id="jPni55zsNNdODauZ0blL-27" style="edgeStyle=orthogonalEdgeStyle;rounded=0;orthogonalLoop=1;jettySize=auto;html=1;exitX=0.5;exitY=1;exitDx=0;exitDy=0;entryX=0;entryY=0.5;entryDx=0;entryDy=0;entryPerimeter=0;" edge="1" parent="1" source="jPni55zsNNdODauZ0blL-3" target="jPni55zsNNdODauZ0blL-18">
          <mxGeometry relative="1" as="geometry" />
        </mxCell>
        <mxCell id="jPni55zsNNdODauZ0blL-29" style="edgeStyle=orthogonalEdgeStyle;rounded=0;orthogonalLoop=1;jettySize=auto;html=1;exitX=0.5;exitY=0;exitDx=0;exitDy=0;exitPerimeter=0;entryX=0.5;entryY=1;entryDx=0;entryDy=0;" edge="1" parent="1" source="jPni55zsNNdODauZ0blL-28" target="jPni55zsNNdODauZ0blL-23">
          <mxGeometry relative="1" as="geometry" />
        </mxCell>
        <mxCell id="jPni55zsNNdODauZ0blL-31" style="edgeStyle=orthogonalEdgeStyle;rounded=0;orthogonalLoop=1;jettySize=auto;html=1;exitX=1;exitY=0.5;exitDx=0;exitDy=0;exitPerimeter=0;entryX=0.5;entryY=0;entryDx=0;entryDy=0;entryPerimeter=0;" edge="1" parent="1" source="jPni55zsNNdODauZ0blL-28" target="jPni55zsNNdODauZ0blL-6">
          <mxGeometry relative="1" as="geometry">
            <mxPoint x="640" y="20" as="targetPoint" />
            <Array as="points">
              <mxPoint x="640" y="510" />
              <mxPoint x="640" y="20" />
              <mxPoint x="444" y="20" />
            </Array>
          </mxGeometry>
        </mxCell>
        <mxCell id="jPni55zsNNdODauZ0blL-28" value="Employee" style="strokeWidth=2;html=1;shape=mxgraph.flowchart.database;whiteSpace=wrap;" vertex="1" parent="1">
          <mxGeometry x="430" y="450" width="120" height="120" as="geometry" />
        </mxCell>
        <mxCell id="jPni55zsNNdODauZ0blL-30" style="edgeStyle=orthogonalEdgeStyle;rounded=0;orthogonalLoop=1;jettySize=auto;html=1;exitX=1;exitY=0.5;exitDx=0;exitDy=0;exitPerimeter=0;entryX=0.5;entryY=1;entryDx=0;entryDy=0;entryPerimeter=0;" edge="1" parent="1" source="jPni55zsNNdODauZ0blL-28" target="jPni55zsNNdODauZ0blL-16">
          <mxGeometry relative="1" as="geometry" />
        </mxCell>
        <mxCell id="jPni55zsNNdODauZ0blL-33" style="edgeStyle=orthogonalEdgeStyle;rounded=0;orthogonalLoop=1;jettySize=auto;html=1;exitX=0.5;exitY=0;exitDx=0;exitDy=0;exitPerimeter=0;" edge="1" parent="1" source="jPni55zsNNdODauZ0blL-32" target="jPni55zsNNdODauZ0blL-23">
          <mxGeometry relative="1" as="geometry" />
        </mxCell>
        <mxCell id="jPni55zsNNdODauZ0blL-32" value="Order Abstract" style="strokeWidth=2;html=1;shape=mxgraph.flowchart.database;whiteSpace=wrap;" vertex="1" parent="1">
          <mxGeometry x="284" y="450" width="120" height="120" as="geometry" />
        </mxCell>
      </root>
    </mxGraphModel>
  </diagram>
</mxfile>
